<svg width="360" height="147" viewBox="0 0 360 147" fill="none" xmlns="http://www.w3.org/2000/svg">
<path d="M72.622 7.644C62.2824 7.66669 52.2621 10.437 42.5606 15.9586C32.8592 21.4803 25.3247 29.2164 19.9564 39.1676C14.6508 49.1188 12.0112 60.2844 12.0372 72.6625C12.0557 81.5639 13.4726 89.6362 16.2278 96.9167L37.5984 96.8736C34.3347 88.8492 32.638 79.7569 32.6166 69.5249C32.5946 59.0848 34.3275 49.3278 37.8177 40.2557C41.3704 31.121 46.3386 24.1087 52.7201 19.2191C59.1015 14.267 66.1147 11.7839 73.7597 11.768C82.47 11.7491 90.5602 14.8898 98.0304 21.1884C105.438 27.5495 111.22 35.6949 115.377 45.6262C116.51 48.312 117.578 49.6547 118.58 49.6526C119.332 49.6511 119.772 49.4632 119.896 49.088C120.084 48.65 120.175 47.4919 120.171 45.6164L117.94 12.8954C117.81 10.645 117.118 9.52079 115.864 9.5234C114.674 9.52589 113.768 10.2781 113.144 11.7798C112.645 12.8436 110.674 14.9102 107.234 17.9806C101.211 14.4923 95.3159 11.9104 89.5473 10.2345C83.7785 8.49613 78.1364 7.63251 72.622 7.644ZM193.598 8.23595C190.402 8.24351 183.321 8.53726 172.356 9.12289C167.469 9.38299 162.236 9.51958 156.659 9.53122L139.552 9.287C137.734 9.29078 136.827 9.85355 136.83 10.9788C136.832 12.0416 137.742 12.6979 139.559 12.9442C144.01 13.6225 146.958 14.8344 148.403 16.5818C149.848 18.2667 150.953 22.2353 151.718 28.4852C152.546 34.7351 152.969 43.0163 152.991 53.3314C152.998 56.6447 152.884 61.4287 152.646 67.6807C152.409 73.8703 152.3 82.0282 152.321 92.1557C152.325 93.8585 152.255 95.0702 152.237 96.6334L168.571 96.5994L168.931 78.9914C168.923 75.1154 169.356 72.3958 170.23 70.8311C174.929 70.3837 179.251 70.1556 183.199 70.1473C194.918 70.1247 203.759 72.4807 209.722 77.2195C215.127 81.4701 218.098 87.9071 218.671 96.4939L237.265 96.4549C236.625 89.7985 233.744 84.059 228.619 79.2416C222.843 73.7522 214.123 69.4882 202.461 66.4493C212.919 63.2391 220.368 59.1618 224.807 54.2138C229.245 49.2657 231.458 43.3516 231.443 36.4749C231.424 27.7227 228.027 20.822 221.248 15.7723C214.407 10.7228 205.191 8.21176 193.598 8.23595ZM292.766 8.49756C281.8 8.52025 272.532 11.76 264.963 18.2149C257.457 24.6697 253.713 32.0544 253.73 40.369C253.738 44.37 254.749 48.5237 256.764 52.8331C258.778 57.0799 261.918 60.9182 266.187 64.3477C270.518 67.7145 278.641 71.2923 290.555 75.0809C299.836 77.9998 306.608 80.6439 310.874 83.0106C315.203 85.3772 318.656 88.4959 321.234 92.3666C322.092 93.6251 322.76 94.9373 323.341 96.2757L339.381 96.2417C339.381 96.219 339.383 96.1952 339.383 96.1714C339.371 90.3575 337.731 84.9215 334.462 79.8645C331.192 74.8076 327.142 70.8775 322.311 68.0744C317.542 65.2712 310.33 62.379 300.674 59.3984C287.568 55.2372 278.913 51.5048 274.707 48.2002C270.502 44.8957 268.393 40.1181 268.38 33.8665C268.369 28.7402 270.269 23.8915 274.082 19.3199C277.958 14.7481 283.688 12.453 291.27 12.4372C298.978 12.4221 306.095 15.0961 312.623 20.4588C319.152 25.8841 324.085 32.6876 327.424 40.8702C327.99 42.1194 328.649 42.7434 329.401 42.7418C330.78 42.7389 331.468 42.1733 331.465 41.048L329.174 23.4244C328.345 16.6119 327.708 12.0807 327.265 9.83109C326.637 9.20724 326.072 8.89621 325.571 8.89727C324.631 8.89924 323.911 9.65031 323.413 11.1518C322.853 12.9659 321.729 14.7195 320.041 16.4109C315.085 13.733 310.319 11.7419 305.742 10.4387C301.227 9.13525 296.902 8.48894 292.766 8.49756ZM185.992 12.0961C193.95 12.081 200.597 14.223 205.933 18.5255C211.331 22.7653 214.039 29.2295 214.058 37.9191C214.08 48.1717 210.49 55.4925 203.293 59.8837C196.096 64.2123 186.544 66.3898 174.638 66.4146C172.257 66.4184 170.785 66.1731 170.22 65.6742C169.718 65.1751 169.464 63.9883 169.46 62.1128L169.337 48.2342C169.318 39.7321 169.577 28.6347 170.112 14.9426C176.061 13.0547 181.355 12.1058 185.992 12.0961ZM255.06 92.4095C253.995 92.4117 253.339 92.788 253.09 93.5387C253.171 94.7716 253.213 95.2512 253.291 96.4223L258.146 96.4109C257.872 95.7607 257.59 95.1358 257.322 94.4671C256.755 93.0929 256 92.4075 255.06 92.4095ZM104.553 106.481C103.483 106.928 101.882 107.236 99.7518 107.404C99.3793 107.43 99.1937 107.565 99.1937 107.802C99.1937 108.012 99.4212 108.158 99.8751 108.242C100.608 108.381 101.179 108.702 101.587 109.205C101.994 109.708 102.232 110.336 102.301 111.09C102.383 111.83 102.429 114.121 102.44 117.961L102.493 129.9C102.493 131.589 102.326 132.797 101.988 133.523C101.662 134.236 100.97 134.598 99.9104 134.612C99.5961 134.627 99.4384 134.751 99.4384 134.989C99.4384 135.24 99.6121 135.365 99.9613 135.365C100.066 135.365 100.184 135.362 100.312 135.347C100.929 135.235 101.743 135.179 102.756 135.179C104.42 135.179 105.851 135.255 107.05 135.409C107.167 135.424 107.266 135.432 107.348 135.432C107.65 135.432 107.8 135.312 107.8 135.074C107.8 134.851 107.615 134.72 107.242 134.678C106.299 134.58 105.683 134.265 105.392 133.734C105.112 133.204 104.972 132.339 104.972 131.138L104.902 124.812L104.937 111.762C104.914 110.002 104.886 108.243 104.851 106.483L104.553 106.481ZM310.391 106.481C309.32 106.928 307.719 107.236 305.589 107.404C305.216 107.43 305.031 107.565 305.031 107.802C305.031 108.012 305.259 108.158 305.712 108.242C306.446 108.381 307.016 108.702 307.424 109.205C307.831 109.708 308.069 110.336 308.139 111.09C308.22 111.83 308.266 114.121 308.278 117.961L308.331 129.9C308.331 131.589 308.163 132.797 307.825 133.523C307.5 134.236 306.807 134.598 305.748 134.612C305.434 134.627 305.276 134.751 305.276 134.989C305.276 135.24 305.449 135.365 305.799 135.365C305.903 135.365 306.021 135.362 306.149 135.347C306.766 135.235 307.581 135.179 308.593 135.179C310.258 135.179 311.689 135.255 312.888 135.409C313.004 135.424 313.104 135.432 313.185 135.432C313.488 135.432 313.638 135.312 313.638 135.074C313.638 134.851 313.452 134.72 313.08 134.678C312.137 134.58 311.52 134.265 311.229 133.734C310.95 133.204 310.81 132.339 310.81 131.138L310.74 124.812L310.774 111.762C310.751 110.002 310.723 108.243 310.688 106.483L310.391 106.481ZM35.8536 106.565C34.5384 106.663 33.3107 106.712 32.1701 106.712C31.495 106.712 31.1177 106.727 31.0362 106.755C30.9664 106.77 30.9305 106.831 30.9305 106.943C30.9305 107.138 31.0941 107.279 31.42 107.363C31.9554 107.488 32.4086 107.935 32.781 108.703C33.1535 109.457 33.3571 110.686 33.392 112.389C33.4386 114.079 33.4625 117.653 33.4625 123.113C33.4625 126.171 33.3926 128.685 33.253 130.654C33.1133 132.609 32.9436 133.732 32.7458 134.026C32.5479 134.319 32.1706 134.508 31.612 134.592C31.3326 134.634 31.1929 134.752 31.1929 134.948C31.1929 135.171 31.3666 135.282 31.7157 135.282C32.2744 135.24 32.9331 135.219 33.6897 135.219L37.2165 135.303C37.4958 135.303 37.6356 135.193 37.6356 134.969C37.6356 134.774 37.4899 134.648 37.1989 134.592C36.4889 134.425 36.0577 134.076 35.9064 133.545C35.7551 133.015 35.6793 131.883 35.6793 130.152C35.6793 127.596 35.7492 125.431 35.8888 123.658C36.0285 121.884 36.4776 120.543 37.2341 119.635C38.0023 118.714 38.8866 118.254 39.8876 118.254C40.9118 118.254 41.7323 118.798 42.3491 119.887C42.9776 120.963 43.2911 123.372 43.2911 127.114C43.2911 130.591 43.2152 132.658 43.0639 133.315C42.9126 133.957 42.4235 134.34 41.5972 134.465C41.3295 134.507 41.1957 134.627 41.1957 134.823C41.1957 135.004 41.2955 135.123 41.4934 135.179H46.6613C47.1734 135.179 47.4289 135.053 47.4289 134.802C47.4289 134.634 47.2712 134.55 46.9569 134.55C46.666 134.534 46.3705 134.389 46.0679 134.11C45.7769 133.831 45.6133 133.502 45.5783 133.125C45.5435 132.748 45.5255 131.673 45.5255 129.9L45.6312 124.35C45.6312 121.669 45.218 119.804 44.3917 118.757C43.5769 117.709 42.4012 117.186 40.8648 117.186C38.9327 117.186 37.2619 118.227 35.8536 120.308C35.8188 119.428 35.8008 118.325 35.8008 116.998L35.8536 106.565ZM19.9662 107.173C18.0457 107.173 16.1833 107.788 14.3792 109.017C12.5752 110.246 11.1738 111.97 10.1729 114.19C9.18357 116.411 8.68852 118.902 8.68852 121.667C8.68852 124.488 9.19957 126.945 10.2238 129.04C11.248 131.134 12.6334 132.776 14.3792 133.963C16.1367 135.15 17.9872 135.743 19.9309 135.743C21.5837 135.743 23.1267 135.317 24.5583 134.465C26.0015 133.613 27.1653 132.505 28.0499 131.136C28.9345 129.768 29.3776 128.88 29.3776 128.475C29.3776 128.14 29.2479 127.973 28.9918 127.973C28.8056 127.973 28.6259 128.181 28.4513 128.6C27.7995 130.122 26.8334 131.464 25.5531 132.623C24.2728 133.782 22.8715 134.362 21.3468 134.362C19.1004 134.362 17.0623 133.125 15.235 130.654C13.4193 128.168 12.5111 124.943 12.5111 120.977C12.5111 118.645 12.8384 116.467 13.4902 114.442C14.1536 112.404 15.0779 110.839 16.265 109.75C17.4522 108.647 18.7557 108.095 20.1757 108.095C21.7935 108.095 23.2947 108.8 24.6797 110.211C26.0531 111.635 27.1251 113.457 27.8932 115.677C28.1028 116.278 28.3004 116.578 28.4866 116.578C28.6262 116.578 28.7081 116.536 28.7314 116.453C28.7662 116.355 28.7842 116.096 28.7842 115.677L28.3808 108.367C28.3577 107.864 28.2298 107.612 27.997 107.612C27.7759 107.612 27.6082 107.781 27.4918 108.116C27.3987 108.354 27.0314 108.813 26.3912 109.498C25.2739 108.716 24.18 108.136 23.1092 107.759C22.0384 107.368 20.9904 107.173 19.9662 107.173ZM172.294 107.362C171.7 107.362 170.385 107.424 168.348 107.55C167.44 107.606 166.468 107.634 165.432 107.634L162.254 107.571C161.916 107.571 161.748 107.697 161.748 107.948C161.748 108.186 161.916 108.332 162.254 108.388C163.08 108.541 163.627 108.814 163.895 109.205C164.162 109.581 164.366 110.469 164.506 111.865C164.657 113.262 164.733 115.112 164.733 117.416C164.733 118.156 164.711 119.223 164.664 120.62C164.618 122.002 164.594 123.826 164.594 126.088C164.594 128.378 164.524 130.102 164.384 131.261C164.245 132.42 164.041 133.187 163.773 133.564C163.506 133.941 163.138 134.18 162.673 134.277C161.893 134.445 161.44 134.556 161.312 134.611C161.195 134.667 161.138 134.765 161.138 134.904C161.138 135.17 161.347 135.303 161.766 135.303C163.023 135.219 165.444 135.178 169.029 135.178C169.088 135.178 169.459 135.201 170.146 135.24C171.216 135.31 171.997 135.346 172.486 135.346C175.081 135.346 177.047 134.543 178.386 132.937C179.724 131.345 180.393 129.606 180.393 127.721C180.393 125.961 179.852 124.468 178.77 123.239C177.699 122.01 176.082 121.054 173.917 120.369C175.861 119.657 177.246 118.749 178.073 117.646C178.899 116.543 179.312 115.224 179.312 113.688C179.312 111.733 178.683 110.189 177.426 109.058C176.158 107.927 174.447 107.362 172.294 107.362ZM278.982 107.466C276.945 107.466 275.222 108.186 273.814 109.625C272.417 111.063 271.721 112.71 271.721 114.567C271.721 115.461 271.906 116.39 272.279 117.353C272.651 118.303 273.232 119.162 274.024 119.93C274.827 120.684 276.336 121.487 278.547 122.339C280.27 122.995 281.525 123.588 282.317 124.119C283.12 124.649 283.761 125.347 284.238 126.213C284.727 127.079 284.97 128.028 284.97 129.061C284.97 130.555 284.517 131.882 283.609 133.041C282.713 134.186 281.468 134.758 279.873 134.758C276.661 134.758 274.159 132.056 272.367 126.652C272.262 126.345 272.123 126.191 271.948 126.191C271.75 126.191 271.626 126.276 271.58 126.444C271.836 131.289 272.005 133.998 272.087 134.571C272.168 135.143 272.302 135.43 272.488 135.43C272.698 135.43 272.849 135.205 272.943 134.758C273.059 134.228 273.315 133.768 273.71 133.377C275.724 134.871 277.726 135.618 279.716 135.618C281.928 135.618 283.796 134.745 285.321 133C286.845 131.254 287.608 129.279 287.608 127.073C287.608 125.774 287.304 124.558 286.699 123.427C286.094 122.296 285.344 121.416 284.447 120.788C283.563 120.159 282.223 119.51 280.431 118.84C277.998 117.905 276.393 117.066 275.614 116.326C274.834 115.586 274.443 114.518 274.443 113.122C274.443 111.977 274.798 110.894 275.508 109.875C276.229 108.856 277.295 108.347 278.704 108.347C280.135 108.347 281.457 108.948 282.667 110.148C283.878 111.363 284.79 112.885 285.407 114.714C285.511 114.993 285.635 115.132 285.775 115.132C286.031 115.132 286.159 115.006 286.159 114.755L285.74 110.819C285.588 109.297 285.471 108.283 285.389 107.781C285.273 107.641 285.169 107.572 285.076 107.572C284.901 107.572 284.767 107.739 284.674 108.074C284.57 108.479 284.36 108.871 284.046 109.248C283.126 108.647 282.242 108.199 281.392 107.906C280.554 107.612 279.75 107.466 278.982 107.466ZM170.88 108.22C172.358 108.22 173.592 108.703 174.581 109.666C175.582 110.616 176.081 112.06 176.081 114.001C176.081 116.291 175.412 117.925 174.074 118.903C172.735 119.866 170.961 120.348 168.749 120.348C168.307 120.348 168.034 120.292 167.929 120.181C167.836 120.069 167.79 119.804 167.79 119.385L167.772 116.285C167.772 114.386 167.824 111.908 167.929 108.85C169.034 108.431 170.019 108.22 170.88 108.22ZM129.835 111.237C129.625 111.237 129.495 111.481 129.449 111.969C129.263 113.827 128.606 115.266 127.477 116.285C126.348 117.304 125.545 117.92 125.068 118.129C124.777 118.241 124.632 118.387 124.632 118.569C124.632 118.764 124.759 118.869 125.015 118.883L126.063 118.965C127.087 119.035 127.64 119.084 127.722 119.112C127.512 124.097 127.406 127.617 127.406 129.669C127.406 131.638 127.704 133.118 128.297 134.11C128.891 135.101 129.781 135.597 130.968 135.597C132.167 135.597 133.179 135.234 134.006 134.508C134.832 133.782 135.245 133.251 135.245 132.916C135.245 132.721 135.169 132.623 135.018 132.623C134.96 132.623 134.798 132.721 134.531 132.916C133.786 133.461 133.105 133.733 132.488 133.733C131.638 133.733 130.986 133.384 130.532 132.686C130.078 131.987 129.85 130.494 129.85 128.204C129.85 125.23 129.932 122.198 130.095 119.112C132.539 118.902 134.064 118.799 134.67 118.799C134.833 118.632 134.92 118.226 134.932 117.584C134.909 117.403 134.571 117.31 133.92 117.31L130.095 117.375L130.077 114.107C130.077 113.395 130.095 112.766 130.13 112.221C130.142 112.082 130.148 111.948 130.148 111.823C130.148 111.432 130.044 111.237 129.835 111.237ZM237.484 111.237C237.275 111.237 237.147 111.481 237.101 111.969C236.914 113.827 236.256 115.266 235.127 116.285C233.998 117.304 233.195 117.92 232.718 118.129C232.427 118.241 232.281 118.387 232.281 118.569C232.281 118.764 232.409 118.869 232.665 118.883L233.713 118.965C234.737 119.035 235.29 119.084 235.371 119.112C235.162 124.097 235.056 127.617 235.056 129.669C235.056 131.638 235.354 133.118 235.947 134.11C236.541 135.101 237.431 135.597 238.618 135.597C239.817 135.597 240.829 135.234 241.656 134.508C242.482 133.782 242.895 133.251 242.895 132.916C242.895 132.721 242.821 132.623 242.67 132.623C242.612 132.623 242.448 132.721 242.18 132.916C241.436 133.461 240.755 133.733 240.138 133.733C239.288 133.733 238.636 133.384 238.182 132.686C237.728 131.987 237.502 130.494 237.502 128.204C237.502 125.23 237.582 122.198 237.745 119.112C240.189 118.902 241.714 118.799 242.32 118.799C242.482 118.632 242.57 118.226 242.582 117.584C242.559 117.403 242.221 117.31 241.569 117.31L237.745 117.375L237.726 114.107C237.726 113.395 237.745 112.766 237.779 112.221C237.79 112.082 237.798 111.948 237.798 111.823C237.798 111.432 237.694 111.237 237.484 111.237ZM57.5551 117.123C55.4018 117.123 53.5853 118.059 52.1072 119.93C50.629 121.802 49.8904 123.965 49.8904 126.422C49.8904 128.936 50.619 131.08 52.0739 132.854C53.5288 134.613 55.2675 135.493 57.2927 135.493C59.3411 135.493 61.1337 134.536 62.6701 132.623C64.2064 130.696 64.9749 128.462 64.9749 125.92C64.9749 123.407 64.2423 121.311 62.7758 119.635C61.3209 117.96 59.5803 117.123 57.5551 117.123ZM89.9585 117.123C87.8053 117.123 85.9888 118.059 84.5106 119.93C83.0324 121.802 82.2938 123.965 82.2938 126.422C82.2938 128.936 83.0205 131.08 84.4753 132.854C85.9302 134.613 87.6709 135.493 89.6961 135.493C91.7445 135.493 93.5371 134.536 95.0735 132.623C96.6098 130.696 97.3783 128.462 97.3783 125.92C97.3783 123.407 96.6457 121.311 95.1792 119.635C93.7243 117.96 91.9837 117.123 89.9585 117.123ZM323.362 117.123C321.209 117.123 319.394 118.059 317.916 119.93C316.438 121.802 315.697 123.965 315.697 126.422C315.697 128.936 316.426 131.08 317.881 132.854C319.336 134.613 321.076 135.493 323.102 135.493C325.15 135.493 326.941 134.536 328.477 132.623C330.013 130.696 330.782 128.462 330.782 125.92C330.782 123.407 330.049 121.311 328.583 119.635C327.128 117.96 325.387 117.123 323.362 117.123ZM74.402 117.164C72.435 117.164 70.7662 118.121 69.3928 120.034C68.031 121.947 67.3503 124.182 67.3503 126.737C67.3503 129.055 68.0071 131.094 69.3223 132.854C70.6375 134.613 72.2604 135.493 74.1925 135.493C75.9616 135.493 77.3709 134.893 78.4184 133.692C79.4776 132.491 80.0066 131.206 80.0066 129.837C80.0066 129.586 79.9027 129.46 79.6933 129.46C79.4954 129.46 79.3676 129.663 79.3094 130.068C79.1698 131.255 78.6867 132.261 77.8603 133.084C77.0223 133.922 76.154 134.341 75.2578 134.341C73.896 134.341 72.7323 133.509 71.7662 131.848C70.8002 130.186 70.3171 128.044 70.3171 125.418C70.3171 123.184 70.6604 121.381 71.3471 120.013C72.0455 118.63 73.0575 117.94 74.3844 117.94C75.7229 117.94 76.6611 118.904 77.1965 120.831C77.5456 122.088 78.0467 122.717 78.6985 122.717C78.9895 122.717 79.245 122.555 79.4661 122.234C79.6873 121.899 79.797 121.514 79.797 121.081C79.797 119.964 79.2161 119.036 78.0522 118.295C76.8883 117.541 75.6707 117.164 74.402 117.164ZM143.854 117.187C142.178 117.187 140.601 118.102 139.123 119.932C137.656 121.761 136.922 124.044 136.922 126.781C136.922 129.337 137.59 131.451 138.929 133.126C140.267 134.788 141.904 135.619 143.836 135.619C145.151 135.619 146.343 135.284 147.414 134.613C148.485 133.943 149.241 133.119 149.684 132.142C149.672 131.779 149.574 131.597 149.388 131.597C149.295 131.597 149.073 131.786 148.724 132.163C147.525 133.504 146.228 134.174 144.831 134.174C143.399 134.174 142.194 133.491 141.216 132.122C140.25 130.754 139.767 129.077 139.767 127.094C139.767 126.675 139.791 126.11 139.837 125.398L148.567 125.23C149.382 125.23 149.823 125.161 149.893 125.021C149.975 124.882 150.017 124.666 150.017 124.372C150.017 122.445 149.382 120.768 148.113 119.344C146.844 117.906 145.425 117.187 143.854 117.187ZM190.049 117.187C188.373 117.187 186.796 118.102 185.318 119.932C183.852 121.761 183.117 124.044 183.117 126.781C183.117 129.337 183.788 131.451 185.126 133.126C186.465 134.788 188.1 135.619 190.032 135.619C191.347 135.619 192.539 135.284 193.609 134.613C194.68 133.943 195.437 133.119 195.879 132.142C195.867 131.779 195.77 131.597 195.583 131.597C195.49 131.597 195.269 131.786 194.92 132.163C193.721 133.504 192.423 134.174 191.026 134.174C189.595 134.174 188.389 133.491 187.412 132.122C186.446 130.754 185.962 129.077 185.962 127.094C185.962 126.675 185.986 126.11 186.033 125.398L194.763 125.23C195.578 125.23 196.019 125.161 196.089 125.021C196.17 124.882 196.212 124.666 196.212 124.372C196.212 122.445 195.577 120.768 194.309 119.344C193.04 117.906 191.621 117.187 190.049 117.187ZM116.356 117.23C114.668 117.23 113.341 117.62 112.375 118.402C111.409 119.17 110.926 120.078 110.926 121.126C110.926 121.726 111.077 122.18 111.38 122.487C111.694 122.795 111.98 122.946 112.236 122.946C112.946 122.946 113.405 122.305 113.614 121.02C113.812 119.847 114.098 119.059 114.47 118.654C114.843 118.263 115.395 118.066 116.129 118.066C117.025 118.066 117.718 118.415 118.206 119.113C118.695 119.798 118.939 120.762 118.939 122.005C118.939 122.787 118.753 123.423 118.381 123.911C118.008 124.4 116.89 125.014 115.028 125.754C113.725 126.284 112.812 126.725 112.289 127.074C111.776 127.424 111.315 127.996 110.908 128.792C110.512 129.587 110.315 130.447 110.315 131.368C110.315 132.597 110.646 133.588 111.309 134.342C111.985 135.096 112.911 135.473 114.086 135.473C115.087 135.473 115.984 135.229 116.775 134.74C117.566 134.238 118.247 133.489 118.817 132.498C118.841 133.67 118.962 134.447 119.184 134.824C119.416 135.187 119.866 135.367 120.529 135.367C122.822 135.367 123.968 135.096 123.968 134.551C123.968 134.313 123.834 134.195 123.566 134.195L123.269 134.236C123.059 134.278 122.897 134.301 122.781 134.301C122.199 134.301 121.798 133.852 121.577 132.958C121.367 132.051 121.261 130.529 121.261 128.393L121.367 122.864C121.367 121.188 121.261 120.057 121.052 119.471C120.854 118.884 120.353 118.366 119.55 117.919C118.758 117.459 117.694 117.23 116.356 117.23ZM204.871 117.23C203.184 117.23 201.856 117.62 200.89 118.402C199.924 119.17 199.441 120.078 199.441 121.126C199.441 121.726 199.593 122.18 199.896 122.487C200.21 122.795 200.495 122.946 200.751 122.946C201.461 122.946 201.92 122.305 202.13 121.02C202.328 119.847 202.613 119.059 202.986 118.654C203.358 118.263 203.911 118.066 204.644 118.066C205.54 118.066 206.233 118.415 206.722 119.113C207.211 119.798 207.454 120.762 207.454 122.005C207.454 122.787 207.269 123.423 206.896 123.911C206.524 124.4 205.406 125.014 203.544 125.754C202.24 126.284 201.326 126.725 200.802 127.074C200.29 127.424 199.831 127.996 199.424 128.792C199.028 129.587 198.83 130.447 198.83 131.368C198.83 132.597 199.161 133.588 199.825 134.342C200.5 135.096 201.426 135.473 202.602 135.473C203.603 135.473 204.499 135.229 205.291 134.74C206.082 134.238 206.763 133.489 207.333 132.498C207.356 133.67 207.478 134.447 207.699 134.824C207.932 135.187 208.381 135.367 209.044 135.367C211.337 135.367 212.483 135.096 212.483 134.551C212.483 134.313 212.349 134.195 212.082 134.195L211.784 134.236C211.575 134.278 211.413 134.301 211.297 134.301C210.715 134.301 210.311 133.852 210.09 132.958C209.881 132.051 209.777 130.529 209.777 128.393L209.881 122.864C209.881 121.188 209.777 120.057 209.567 119.471C209.369 118.884 208.868 118.366 208.065 117.919C207.274 117.459 206.21 117.23 204.871 117.23ZM296.495 117.23C294.807 117.23 293.48 117.62 292.514 118.402C291.548 119.17 291.064 120.078 291.064 121.126C291.064 121.726 291.216 122.18 291.519 122.487C291.833 122.795 292.118 122.946 292.375 122.946C293.085 122.946 293.544 122.305 293.753 121.02C293.951 119.847 294.237 119.059 294.609 118.654C294.981 118.263 295.534 118.066 296.268 118.066C297.164 118.066 297.856 118.415 298.345 119.113C298.834 119.798 299.078 120.762 299.078 122.005C299.078 122.787 298.892 123.423 298.52 123.911C298.147 124.4 297.029 125.014 295.167 125.754C293.863 126.284 292.949 126.725 292.425 127.074C291.913 127.424 291.454 127.996 291.047 128.792C290.651 129.587 290.454 130.447 290.454 131.368C290.454 132.597 290.785 133.588 291.448 134.342C292.123 135.096 293.05 135.473 294.225 135.473C295.226 135.473 296.122 135.229 296.914 134.74C297.705 134.238 298.386 133.489 298.956 132.498C298.979 133.67 299.101 134.447 299.322 134.824C299.555 135.187 300.002 135.367 300.666 135.367C302.959 135.367 304.106 135.096 304.106 134.551C304.106 134.313 303.973 134.195 303.705 134.195L303.407 134.236C303.198 134.278 303.034 134.301 302.918 134.301C302.336 134.301 301.935 133.852 301.714 132.958C301.504 132.051 301.4 130.529 301.4 128.393L301.504 122.864C301.504 121.188 301.4 120.057 301.191 119.471C300.993 118.884 300.492 118.366 299.689 117.919C298.897 117.459 297.833 117.23 296.495 117.23ZM337.573 117.249C336.153 117.291 335.369 117.311 335.217 117.311L333.804 117.292C333.455 117.292 333.279 117.411 333.279 117.648C333.279 117.871 333.507 118.046 333.96 118.171C334.461 118.311 334.85 118.681 335.129 119.281C335.409 119.881 335.548 121.418 335.548 123.89C335.548 126.543 335.514 128.757 335.445 130.53C335.386 132.303 335.263 133.35 335.077 133.671C334.891 133.979 334.531 134.194 333.996 134.32C333.437 134.445 333.158 134.628 333.158 134.865C333.158 135.088 333.413 135.201 333.925 135.201L335.321 135.158C337.149 135.158 338.227 135.173 338.553 135.201L339.459 135.283C339.715 135.283 339.843 135.186 339.843 134.99C339.843 134.753 339.715 134.622 339.459 134.594C338.645 134.482 338.133 134.174 337.924 133.671C337.726 133.155 337.626 131.962 337.626 130.09C337.626 125.971 338.075 123.031 338.971 121.272C339.879 119.498 341.013 118.611 342.375 118.611C343.294 118.611 344.063 119.101 344.68 120.078C345.297 121.056 345.604 123.016 345.604 125.962C345.604 127.038 345.578 128.435 345.518 130.153C345.471 131.871 345.408 132.882 345.326 133.189C345.245 133.482 345.105 133.72 344.907 133.902C344.709 134.083 344.29 134.258 343.65 134.426C343.417 134.481 343.301 134.592 343.301 134.76C343.301 134.997 343.515 135.117 343.946 135.117C345.028 135.02 346.042 134.971 346.985 134.971C348.032 134.971 348.823 135.04 349.358 135.18C349.44 135.195 349.522 135.202 349.603 135.202C349.801 135.202 349.901 135.097 349.901 134.888C349.901 134.72 349.697 134.567 349.29 134.427C348.696 134.231 348.305 133.972 348.119 133.651C347.944 133.316 347.858 132.5 347.858 131.201L347.962 124.143C347.962 122.048 347.759 120.568 347.351 119.702C346.955 118.823 346.384 118.207 345.64 117.858C344.906 117.495 344.144 117.313 343.352 117.313C342.316 117.313 341.356 117.656 340.472 118.341C339.599 119.025 338.802 120.051 338.081 121.42C338.023 119.465 337.853 118.073 337.573 117.249ZM251.504 117.311C251.41 117.311 251.241 117.342 250.996 117.395C250.589 117.493 249.455 117.542 247.593 117.542C246.72 117.542 245.946 117.493 245.27 117.395C245.119 117.369 244.985 117.354 244.869 117.354C244.59 117.354 244.45 117.487 244.45 117.753C244.45 117.976 244.642 118.115 245.026 118.171C245.445 118.241 245.83 118.52 246.179 119.009C246.54 119.484 247.209 121.095 248.186 123.846C249.164 126.583 250.048 129.133 250.84 131.493C251.643 133.853 252.044 135.5 252.044 136.435C252.044 137.622 251.527 139.27 250.491 141.378C249.467 143.487 248.535 144.541 247.697 144.541C247.173 144.541 246.888 144.158 246.841 143.39C246.76 142.245 246.242 141.673 245.288 141.673C244.916 141.673 244.548 141.874 244.188 142.279C243.839 142.684 243.665 143.153 243.665 143.683C243.665 144.34 243.926 144.981 244.45 145.61C244.985 146.238 245.706 146.553 246.614 146.553C247.498 146.553 248.395 146.133 249.303 145.295C250.222 144.471 251.102 142.97 251.94 140.792C252.79 138.628 253.906 135.095 255.291 130.194C256.711 125.181 257.689 121.989 258.224 120.621C258.771 119.238 259.51 118.422 260.441 118.171C260.755 118.087 260.913 117.941 260.913 117.731C260.913 117.494 260.768 117.376 260.476 117.376C260.383 117.376 260.221 117.387 259.989 117.417C259.465 117.473 258.429 117.501 256.881 117.501C256.357 117.501 255.99 117.493 255.78 117.478C255.245 117.436 254.932 117.416 254.839 117.416C254.571 117.416 254.435 117.528 254.435 117.752C254.435 117.989 254.605 118.128 254.942 118.17C256.153 118.295 256.758 118.937 256.758 120.096C256.758 120.99 256.578 122.185 256.217 123.679C255.856 125.159 255.042 127.966 253.773 132.099C251.12 124.601 249.792 120.522 249.792 119.866C249.792 119.098 250.251 118.569 251.171 118.275C251.683 118.122 251.94 117.932 251.94 117.709C251.94 117.443 251.795 117.311 251.504 117.311ZM215.015 117.585C214.457 117.585 214.177 117.703 214.177 117.941C214.177 118.178 214.409 118.317 214.874 118.359C215.305 118.385 215.562 118.512 215.644 118.736C215.725 118.959 215.765 119.526 215.765 120.433C215.765 122.095 215.799 124.386 215.869 127.304C215.939 130.223 216.068 132.052 216.255 132.792C216.453 133.518 216.848 134.139 217.441 134.656C218.047 135.172 218.791 135.431 219.676 135.431C220.712 135.431 221.706 135.088 222.66 134.404C223.615 133.72 224.535 132.693 225.419 131.325C225.454 132.023 225.472 132.554 225.472 132.917C225.472 133.35 225.453 133.776 225.419 134.195C225.408 134.334 225.4 134.46 225.4 134.572C225.4 134.949 225.64 135.136 226.117 135.136H228.874C229.468 135.136 229.765 135.01 229.765 134.759C229.765 134.536 229.614 134.397 229.311 134.341C228.822 134.285 228.463 134.047 228.23 133.628C228.009 133.209 227.897 132.191 227.897 130.571L228.036 122.696C228.036 120.811 227.984 119.107 227.88 117.585H224.388C223.946 117.585 223.684 117.615 223.603 117.669C223.521 117.711 223.482 117.808 223.482 117.962C223.482 118.185 223.615 118.304 223.883 118.317C224.605 118.373 225.058 118.589 225.244 118.966C225.43 119.343 225.524 120.425 225.524 122.213C225.524 126.053 225.424 128.511 225.226 129.586C225.028 130.647 224.505 131.645 223.656 132.581C222.818 133.516 221.979 133.985 221.141 133.985C220.501 133.985 219.93 133.691 219.43 133.104C218.941 132.518 218.649 131.779 218.556 130.885C218.463 129.977 218.405 128.169 218.382 125.46C218.335 121.117 218.283 118.492 218.225 117.585L215.015 117.585ZM143.958 117.919C144.865 117.919 145.652 118.36 146.315 119.24C146.99 120.106 147.328 121.124 147.328 122.297C147.328 123.051 147.14 123.582 146.768 123.889C146.395 124.183 145.86 124.344 145.162 124.372L144.238 124.434C142.818 124.434 141.351 124.391 139.837 124.307C140.082 122.045 140.617 120.419 141.443 119.427C142.281 118.422 143.12 117.919 143.958 117.919ZM190.153 117.919C191.061 117.919 191.847 118.36 192.511 119.24C193.186 120.106 193.523 121.124 193.523 122.297C193.523 123.051 193.336 123.582 192.963 123.889C192.591 124.183 192.056 124.344 191.357 124.372L190.433 124.434C189.013 124.434 187.546 124.391 186.033 124.307C186.277 122.045 186.812 120.419 187.639 119.427C188.477 118.422 189.315 117.919 190.153 117.919ZM57.3279 118.003C58.7828 118.003 59.9645 118.87 60.8724 120.601C61.7919 122.319 62.251 124.279 62.251 126.486C62.251 128.957 61.7739 130.94 60.8195 132.435C59.8767 133.929 58.7828 134.677 57.5374 134.677C56.1757 134.677 55.0299 133.88 54.0987 132.288C53.1792 130.696 52.7182 128.7 52.7182 126.298C52.7182 123.91 53.1493 121.935 54.0106 120.371C54.8719 118.793 55.9778 118.003 57.3279 118.003ZM89.7313 118.003C91.1862 118.003 92.3679 118.87 93.2758 120.601C94.1953 122.319 94.6544 124.279 94.6544 126.486C94.6544 128.957 94.1773 130.94 93.2229 132.435C92.2801 133.929 91.1862 134.677 89.9409 134.677C88.5791 134.677 87.4333 133.88 86.5021 132.288C85.5827 130.696 85.1216 128.7 85.1216 126.298C85.1216 123.91 85.5527 121.935 86.414 120.371C87.2753 118.793 88.3812 118.003 89.7313 118.003ZM323.135 118.003C324.59 118.003 325.772 118.87 326.679 120.601C327.599 122.319 328.06 124.279 328.06 126.486C328.06 128.957 327.581 130.94 326.627 132.435C325.684 133.929 324.59 134.677 323.345 134.677C321.983 134.677 320.837 133.88 319.906 132.288C318.986 130.696 318.527 128.7 318.527 126.298C318.527 123.91 318.956 121.935 319.818 120.371C320.679 118.793 321.785 118.003 323.135 118.003ZM170.337 121.187C172.514 121.187 174.155 121.718 175.26 122.78C176.378 123.841 176.937 125.501 176.937 127.763C176.937 129.285 176.645 130.591 176.063 131.68C175.481 132.77 174.843 133.503 174.144 133.88C173.458 134.243 172.561 134.425 171.456 134.425C170.21 134.425 169.296 134.333 168.714 134.152C168.144 133.97 167.806 133.747 167.702 133.481C167.609 133.216 167.563 131.939 167.563 129.648L167.684 123.157C167.684 122.291 167.766 121.683 167.929 121.334C168.802 121.236 169.604 121.187 170.337 121.187ZM118.817 124.329C118.899 125.711 118.939 126.968 118.939 128.099C118.939 129.608 118.795 130.746 118.504 131.514C118.225 132.282 117.788 132.916 117.194 133.419C116.6 133.908 115.966 134.152 115.291 134.152C114.639 134.152 114.092 133.846 113.65 133.232C113.219 132.617 113.003 131.87 113.003 130.991C113.003 130.013 113.271 129.175 113.806 128.476C114.342 127.792 115.22 127.074 116.442 126.32C117.676 125.538 118.468 124.873 118.817 124.329ZM207.333 124.329C207.414 125.711 207.454 126.968 207.454 128.099C207.454 129.608 207.309 130.746 207.018 131.514C206.738 132.282 206.303 132.916 205.709 133.419C205.116 133.908 204.481 134.152 203.806 134.152C203.154 134.152 202.607 133.846 202.165 133.232C201.734 132.617 201.519 131.87 201.519 130.991C201.519 130.013 201.786 129.175 202.322 128.476C202.857 127.792 203.735 127.074 204.957 126.32C206.191 125.538 206.984 124.873 207.333 124.329ZM298.956 124.329C299.038 125.711 299.078 126.968 299.078 128.099C299.078 129.608 298.932 130.746 298.641 131.514C298.362 132.282 297.924 132.916 297.331 133.419C296.737 133.908 296.104 134.152 295.429 134.152C294.778 134.152 294.231 133.846 293.788 133.232C293.358 132.617 293.142 131.87 293.142 130.991C293.142 130.013 293.41 129.175 293.945 128.476C294.48 127.792 295.359 127.074 296.581 126.32C297.814 125.538 298.607 124.873 298.956 124.329Z" fill="#FFFFCC" fill-opacity="0.992157" stroke="#FFFFCC" stroke-width="2.45669"/>
</svg>
