<svg width="179" height="77" viewBox="0 0 179 77" fill="none" xmlns="http://www.w3.org/2000/svg">
<path d="M36.8042 3.79736C31.6919 3.80863 26.7374 5.18484 21.9406 7.92785C17.1438 10.6709 13.4183 14.514 10.764 19.4575C8.14068 24.4009 6.83557 29.9477 6.8484 36.0969C6.85758 40.5189 7.55816 44.529 8.92046 48.1457L19.487 48.1243C17.8733 44.138 17.0344 39.6212 17.0238 34.5382C17.0129 29.3518 17.8698 24.5048 19.5955 19.998C21.3521 15.4601 23.8086 11.9766 26.9639 9.54757C30.1191 7.08751 33.5867 5.85397 37.3668 5.84605C41.6735 5.83666 45.6737 7.3969 49.3673 10.5258C53.03 13.6859 55.8888 17.7323 57.9441 22.6659C58.5046 24.0002 59.0324 24.6672 59.5282 24.6661C59.9 24.6654 60.1172 24.5721 60.1788 24.3857C60.2713 24.1681 60.3163 23.5928 60.3144 22.6611L59.2115 6.4061C59.1472 5.28819 58.8049 4.7297 58.1852 4.73099C57.5965 4.73223 57.1486 5.10593 56.8403 5.85193C56.5935 6.38041 55.619 7.40701 53.9181 8.93232C50.94 7.19943 48.0251 5.91679 45.1728 5.08425C42.3205 4.22067 39.5308 3.79165 36.8042 3.79736ZM96.62 4.09142C95.0398 4.09518 91.539 4.2411 86.1174 4.53203C83.7009 4.66124 81.1134 4.7291 78.3558 4.73488L69.8972 4.61356C68.9986 4.61544 68.5501 4.895 68.5513 5.45402C68.5524 5.98196 69.0023 6.30801 69.9011 6.43035C72.1016 6.76734 73.5592 7.36935 74.2737 8.23744C74.9881 9.07445 75.5347 11.0459 75.9129 14.1507C76.3222 17.2555 76.5316 21.3694 76.5423 26.4937C76.5457 28.1397 76.4893 30.5162 76.3719 33.6221C76.2544 36.6969 76.2007 40.7495 76.2112 45.7806C76.2129 46.6265 76.1782 47.2284 76.1695 48.005L84.2457 47.9881L84.4239 39.2409C84.42 37.3154 84.6337 35.9644 85.0659 35.1871C87.3892 34.9648 89.5266 34.8515 91.4786 34.8474C97.2726 34.8361 101.644 36.0066 104.593 38.3606C107.265 40.4723 108.734 43.67 109.018 47.9357L118.211 47.9163C117.895 44.6096 116.47 41.7583 113.936 39.3652C111.08 36.6382 106.769 34.52 101.002 33.0103C106.173 31.4156 109.856 29.3901 112.051 26.932C114.246 24.4739 115.34 21.536 115.332 18.1198C115.323 13.7719 113.643 10.3438 110.292 7.83529C106.909 5.32684 102.352 4.0794 96.62 4.09142ZM145.653 4.22138C140.231 4.23265 135.648 5.84207 131.906 9.0487C128.195 12.2553 126.344 15.9238 126.352 20.0543C126.356 22.0419 126.856 24.1053 127.852 26.2461C128.848 28.3559 130.401 30.2626 132.511 31.9663C134.653 33.6388 138.669 35.4162 144.56 37.2983C149.149 38.7483 152.497 40.0618 154.607 41.2376C156.747 42.4132 158.454 43.9625 159.729 45.8853C160.153 46.5105 160.484 47.1624 160.771 47.8273L168.702 47.8104C168.702 47.7991 168.703 47.7873 168.703 47.7755C168.697 44.8873 167.886 42.1868 166.269 39.6746C164.653 37.1625 162.65 35.2101 160.261 33.8176C157.904 32.425 154.338 30.9883 149.563 29.5076C143.083 27.4404 138.803 25.5863 136.724 23.9446C134.645 22.303 133.602 19.9296 133.596 16.824C133.59 14.2774 134.53 11.8687 136.415 9.59762C138.331 7.32649 141.165 6.18637 144.914 6.17852C148.725 6.17101 152.243 7.49935 155.471 10.1634C158.699 12.8586 161.139 16.2384 162.789 20.3033C163.07 20.9238 163.396 21.2338 163.767 21.233C164.449 21.2316 164.789 20.9506 164.788 20.3916L163.655 11.6367C163.245 8.25237 162.93 6.00142 162.711 4.88385C162.401 4.57393 162.121 4.41942 161.873 4.41995C161.409 4.42093 161.053 4.79404 160.806 5.53992C160.529 6.44113 159.974 7.31226 159.139 8.15252C156.689 6.82224 154.332 5.83311 152.069 5.18569C149.837 4.53817 147.698 4.2171 145.653 4.22138ZM92.8593 6.00906C96.7943 6.00155 100.081 7.06565 102.719 9.203C105.388 11.3092 106.727 14.5205 106.736 18.8372C106.748 23.9305 104.972 27.5673 101.414 29.7487C97.8552 31.899 93.1323 32.9808 87.2454 32.9931C86.068 32.995 85.3404 32.8731 85.061 32.6253C84.8126 32.3773 84.6873 31.7877 84.6853 30.856L84.6243 23.9615C84.6149 19.7379 84.7431 14.225 85.0077 7.4231C87.9493 6.48524 90.5665 6.01387 92.8593 6.00906ZM127.01 45.9067C126.483 45.9078 126.159 46.0947 126.036 46.4676C126.076 47.0801 126.097 47.3183 126.135 47.9001L128.536 47.8945C128.4 47.5714 128.261 47.261 128.128 46.9288C127.848 46.2462 127.474 45.9057 127.01 45.9067ZM52.5926 52.8973C52.0631 53.1192 51.2715 53.2721 50.2184 53.3553C50.0342 53.3685 49.9424 53.4353 49.9424 53.5533C49.9424 53.6574 50.055 53.73 50.2794 53.7717C50.642 53.841 50.9242 54.0004 51.1257 54.2501C51.3271 54.4999 51.4445 54.8121 51.4791 55.1867C51.5194 55.5543 51.5421 56.6923 51.5478 58.5999L51.574 64.5307C51.574 65.3701 51.491 65.9703 51.3241 66.331C51.163 66.6848 50.8205 66.8647 50.2968 66.8716C50.1414 66.8791 50.0635 66.9409 50.0635 67.0588C50.0635 67.1837 50.1493 67.2461 50.322 67.2461C50.3738 67.2461 50.432 67.2442 50.4953 67.2367C50.8003 67.1811 51.203 67.1533 51.7037 67.1533C52.5266 67.1533 53.2343 67.1914 53.8271 67.2679C53.8846 67.2754 53.934 67.2791 53.9743 67.2791C54.1239 67.2791 54.1979 67.2194 54.1979 67.1015C54.1979 66.9905 54.1061 66.9253 53.922 66.9045C53.4558 66.856 53.1508 66.6993 53.007 66.4357C52.8689 66.1721 52.7998 65.7425 52.7998 65.1459L52.7649 62.0034L52.7823 55.5204C52.7709 54.6464 52.757 53.7721 52.7397 52.8981L52.5926 52.8973ZM154.368 52.8973C153.838 53.1192 153.047 53.2721 151.993 53.3553C151.809 53.3685 151.717 53.4353 151.717 53.5533C151.717 53.6574 151.83 53.73 152.054 53.7717C152.417 53.841 152.699 54.0004 152.901 54.2501C153.102 54.4999 153.22 54.8121 153.254 55.1867C153.294 55.5543 153.317 56.6923 153.323 58.5999L153.349 64.5307C153.349 65.3701 153.266 65.9703 153.099 66.331C152.938 66.6848 152.596 66.8647 152.072 66.8716C151.917 66.8791 151.839 66.9409 151.839 67.0588C151.839 67.1837 151.924 67.2461 152.097 67.2461C152.149 67.2461 152.207 67.2442 152.27 67.2367C152.575 67.1811 152.978 67.1533 153.479 67.1533C154.302 67.1533 155.009 67.1914 155.602 67.2679C155.66 67.2754 155.709 67.2791 155.749 67.2791C155.899 67.2791 155.973 67.2194 155.973 67.1015C155.973 66.9905 155.881 66.9253 155.697 66.9045C155.231 66.856 154.926 66.6993 154.782 66.4357C154.644 66.1721 154.575 65.7425 154.575 65.1459L154.54 62.0034L154.557 55.5204C154.546 54.6464 154.532 53.7721 154.514 52.8981L154.368 52.8973ZM18.6243 52.9389C17.974 52.9874 17.367 53.0118 16.803 53.0118C16.4692 53.0118 16.2827 53.0193 16.2424 53.0332C16.2079 53.0407 16.1901 53.071 16.1901 53.1264C16.1901 53.2235 16.271 53.2933 16.4322 53.335C16.6969 53.3974 16.9209 53.6193 17.1051 54.0008C17.2893 54.3754 17.3899 54.9859 17.4072 55.8322C17.4302 56.6715 17.442 58.4469 17.442 61.1593C17.442 62.6785 17.4075 63.9273 17.3384 64.9054C17.2694 65.8766 17.1855 66.4349 17.0877 66.5805C16.9898 66.7263 16.8033 66.8204 16.5271 66.862C16.3889 66.8828 16.3198 66.9414 16.3198 67.0385C16.3198 67.1495 16.4057 67.2045 16.5784 67.2045C16.8546 67.1837 17.1803 67.1735 17.5544 67.1735L19.2982 67.2152C19.4363 67.2152 19.5054 67.1602 19.5054 67.0492C19.5054 66.9521 19.4334 66.8896 19.2895 66.862C18.9384 66.7788 18.7252 66.6054 18.6504 66.3418C18.5756 66.0782 18.5381 65.5162 18.5381 64.656C18.5381 63.3866 18.5727 62.311 18.6417 61.43C18.7108 60.5491 18.9328 59.8827 19.3069 59.4318C19.6867 58.9739 20.124 58.7456 20.6189 58.7456C21.1253 58.7456 21.531 59.0159 21.836 59.557C22.1467 60.0911 22.3017 61.2878 22.3017 63.1469C22.3017 64.8741 22.2642 65.9012 22.1894 66.2273C22.1146 66.5464 21.8728 66.7365 21.4642 66.7989C21.3318 66.8197 21.2657 66.8795 21.2657 66.9765C21.2657 67.0667 21.315 67.1255 21.4129 67.1533H23.9681C24.2213 67.1533 24.3476 67.0907 24.3476 66.966C24.3476 66.8828 24.2697 66.8408 24.1143 66.8408C23.9704 66.8333 23.8243 66.7611 23.6747 66.6224C23.5308 66.4836 23.4499 66.3206 23.4326 66.1333C23.4154 65.946 23.4065 65.4119 23.4065 64.531L23.4588 61.7738C23.4588 60.4419 23.2545 59.5155 22.8459 58.9952C22.4431 58.4749 21.8617 58.2149 21.1021 58.2149C20.1468 58.2149 19.3207 58.7322 18.6243 59.7658C18.6071 59.3287 18.5982 58.7807 18.5982 58.1217L18.6243 52.9389ZM10.7689 53.2408C9.81931 53.2408 8.89844 53.5465 8.00643 54.1569C7.11443 54.7674 6.42154 55.6239 5.92662 56.7268C5.43746 57.8298 5.19269 59.0675 5.19269 60.441C5.19269 61.8422 5.44537 63.0631 5.9518 64.1037C6.45823 65.1442 7.1432 65.9597 8.00643 66.5493C8.87542 67.139 9.79037 67.4335 10.7514 67.4335C11.5686 67.4335 12.3316 67.2219 13.0394 66.7988C13.753 66.3756 14.3284 65.8248 14.7658 65.145C15.2032 64.4652 15.4223 64.0244 15.4223 63.8232C15.4223 63.6568 15.3581 63.5738 15.2315 63.5738C15.1395 63.5738 15.0506 63.6773 14.9643 63.8853C14.642 64.6414 14.1643 65.3078 13.5313 65.8836C12.8983 66.4593 12.2054 66.7473 11.4515 66.7473C10.3408 66.7473 9.33308 66.1331 8.42956 64.9053C7.5318 63.6705 7.08272 62.0685 7.08272 60.0984C7.08272 58.9399 7.24457 57.8579 7.56684 56.852C7.89487 55.8393 8.35186 55.062 8.93886 54.5209C9.52586 53.9729 10.1704 53.6988 10.8725 53.6988C11.6724 53.6988 12.4146 54.0493 13.0994 54.7499C13.7785 55.4575 14.3085 56.3624 14.6883 57.4654C14.7919 57.7637 14.8897 57.9128 14.9817 57.9128C15.0508 57.9128 15.0912 57.8923 15.1028 57.8506C15.12 57.802 15.1289 57.6733 15.1289 57.4653L14.9294 53.8337C14.918 53.584 14.8548 53.4591 14.7397 53.4591C14.6303 53.4591 14.5474 53.543 14.4899 53.7095C14.4438 53.8274 14.2622 54.0557 13.9457 54.3956C13.3932 54.0072 12.8524 53.7192 12.3229 53.5319C11.7935 53.3376 11.2753 53.2408 10.7689 53.2408ZM86.0864 53.3349C85.7929 53.3349 85.1425 53.3657 84.1353 53.428C83.6865 53.4558 83.2058 53.4697 82.6936 53.4697L81.1221 53.4387C80.9553 53.4387 80.8723 53.5011 80.8723 53.626C80.8723 53.7439 80.9552 53.8166 81.1221 53.8443C81.5307 53.9206 81.8012 54.0558 81.9335 54.25C82.0659 54.4372 82.1666 54.8781 82.2356 55.5718C82.3104 56.2655 82.3479 57.1845 82.3479 58.329C82.3479 58.6967 82.3371 59.227 82.314 59.9207C82.291 60.6074 82.2792 61.5133 82.2792 62.6371C82.2792 63.7748 82.2446 64.6313 82.1756 65.207C82.1065 65.7828 82.0059 66.164 81.8735 66.3512C81.7411 66.5385 81.5595 66.6569 81.3293 66.7055C80.9438 66.7887 80.7197 66.8437 80.6564 66.8715C80.5989 66.8993 80.5702 66.9478 80.5702 67.0171C80.5702 67.1489 80.6739 67.215 80.8811 67.215C81.5026 67.1734 82.6998 67.1529 84.4723 67.1529C84.5011 67.1529 84.6847 67.1641 85.0242 67.1839C85.5537 67.2186 85.9396 67.2363 86.1813 67.2363C87.4646 67.2363 88.4368 66.8374 89.0986 66.0396C89.7604 65.2488 90.0911 64.3849 90.0911 63.4484C90.0911 62.5743 89.8236 61.8325 89.2884 61.222C88.7589 60.6116 87.9595 60.1363 86.8891 59.7964C87.8501 59.4426 88.5351 58.9915 88.9437 58.4435C89.3523 57.8955 89.5566 57.2403 89.5566 56.4772C89.5566 55.5061 89.2457 54.739 88.6242 54.1771C87.9969 53.6152 87.151 53.3349 86.0864 53.3349ZM138.838 53.3863C137.831 53.3863 136.979 53.7442 136.283 54.4587C135.592 55.1732 135.247 55.9915 135.247 56.9141C135.247 57.3581 135.339 57.8194 135.523 58.2981C135.708 58.7698 135.995 59.1966 136.386 59.5782C136.783 59.9527 137.529 60.3516 138.623 60.7748C139.475 61.1008 140.095 61.3953 140.487 61.6589C140.884 61.9225 141.201 62.2692 141.437 62.6993C141.678 63.1294 141.799 63.601 141.799 64.1143C141.799 64.8566 141.575 65.5155 141.126 66.0912C140.683 66.6601 140.067 66.9443 139.278 66.9443C137.69 66.9443 136.453 65.6023 135.567 62.9177C135.515 62.765 135.446 62.6887 135.36 62.6887C135.262 62.6887 135.201 62.7305 135.178 62.8139C135.304 65.221 135.388 66.5668 135.428 66.8512C135.469 67.1356 135.535 67.2782 135.627 67.2782C135.731 67.2782 135.806 67.1663 135.852 66.9444C135.909 66.6808 136.036 66.4525 136.231 66.2582C137.227 67.0005 138.217 67.3714 139.201 67.3714C140.294 67.3714 141.218 66.9381 141.972 66.0709C142.726 65.2038 143.103 64.2224 143.103 63.1264C143.103 62.4813 142.953 61.8773 142.654 61.3154C142.354 60.7535 141.983 60.3164 141.54 60.0043C141.103 59.6921 140.44 59.3697 139.554 59.0367C138.351 58.5719 137.558 58.1553 137.172 57.7876C136.787 57.42 136.593 56.8897 136.593 56.196C136.593 55.6272 136.769 55.0894 137.12 54.583C137.477 54.0766 138.004 53.8241 138.7 53.8241C139.408 53.8241 140.061 54.1223 140.66 54.7189C141.258 55.3224 141.71 56.0782 142.015 56.987C142.066 57.1258 142.128 57.1947 142.196 57.1947C142.323 57.1947 142.386 57.1321 142.386 57.0074L142.179 55.0518C142.104 54.2957 142.046 53.7924 142.006 53.5427C141.948 53.4734 141.897 53.4388 141.851 53.4388C141.764 53.4388 141.698 53.5219 141.652 53.6883C141.601 53.8894 141.497 54.0843 141.342 54.2716C140.887 53.9733 140.45 53.7505 140.03 53.6048C139.615 53.4591 139.218 53.3863 138.838 53.3863ZM85.3873 53.7611C86.1182 53.7611 86.7281 54.0006 87.2173 54.4793C87.7122 54.951 87.959 55.6686 87.959 56.6328C87.959 57.7705 87.6283 58.5823 86.9665 59.0678C86.3047 59.5465 85.4273 59.786 84.3338 59.786C84.1152 59.786 83.9799 59.758 83.9281 59.7026C83.8821 59.6471 83.8594 59.5158 83.8594 59.3076L83.8506 57.7674C83.8506 56.824 83.8763 55.5929 83.928 54.0737C84.4748 53.8656 84.9614 53.7611 85.3873 53.7611ZM65.0927 55.2596C64.9891 55.2596 64.925 55.3807 64.902 55.6235C64.8099 56.5461 64.4852 57.261 63.9269 57.7674C63.3687 58.2738 62.9719 58.5795 62.736 58.6835C62.5921 58.7391 62.5201 58.8118 62.5201 58.9019C62.5201 58.999 62.5832 59.0512 62.7098 59.0581L63.2278 59.0989C63.7343 59.1336 64.0077 59.1578 64.048 59.1717C63.9444 61.6482 63.8921 63.3966 63.8921 64.4164C63.8921 65.3945 64.0391 66.1298 64.3326 66.6223C64.6261 67.1149 65.0663 67.3609 65.6533 67.3609C66.2461 67.3609 66.7465 67.181 67.1551 66.8203C67.5637 66.4596 67.768 66.1958 67.768 66.0293C67.768 65.9322 67.7305 65.8838 67.6557 65.8838C67.6269 65.8838 67.547 65.9322 67.4146 66.0293C67.0463 66.2999 66.7097 66.435 66.4047 66.435C65.9846 66.435 65.6619 66.2617 65.4374 65.9148C65.213 65.568 65.1005 64.8261 65.1005 63.6885C65.1005 62.2109 65.1409 60.7048 65.2215 59.1717C66.43 59.0677 67.1841 59.0164 67.4833 59.0164C67.5639 58.9332 67.6073 58.7319 67.6131 58.4128C67.6017 58.3226 67.4348 58.2768 67.1125 58.2768L65.2215 58.3089L65.2127 56.6853C65.2127 56.3315 65.2215 56.0192 65.2388 55.7487C65.2446 55.6794 65.2475 55.6131 65.2475 55.5507C65.2475 55.3565 65.1963 55.2596 65.0927 55.2596ZM118.32 55.2596C118.216 55.2596 118.153 55.3807 118.13 55.6235C118.038 56.5461 117.712 57.261 117.154 57.7674C116.596 58.2738 116.199 58.5795 115.963 58.6835C115.819 58.7391 115.747 58.8118 115.747 58.9019C115.747 58.999 115.81 59.0512 115.937 59.0581L116.455 59.0989C116.961 59.1336 117.235 59.1578 117.275 59.1717C117.171 61.6482 117.119 63.3966 117.119 64.4164C117.119 65.3945 117.266 66.1298 117.559 66.6223C117.853 67.1149 118.293 67.3609 118.88 67.3609C119.473 67.3609 119.973 67.181 120.382 66.8203C120.791 66.4596 120.995 66.1958 120.995 66.0293C120.995 65.9322 120.958 65.8838 120.884 65.8838C120.855 65.8838 120.774 65.9322 120.641 66.0293C120.273 66.2999 119.937 66.435 119.632 66.435C119.211 66.435 118.889 66.2617 118.664 65.9148C118.44 65.568 118.328 64.8261 118.328 63.6885C118.328 62.2109 118.368 60.7048 118.448 59.1717C119.657 59.0677 120.411 59.0164 120.71 59.0164C120.791 58.9332 120.834 58.7319 120.84 58.4128C120.829 58.3226 120.662 58.2768 120.339 58.2768L118.448 58.3089L118.439 56.6853C118.439 56.3315 118.448 56.0192 118.465 55.7487C118.471 55.6794 118.474 55.6131 118.474 55.5507C118.474 55.3565 118.423 55.2596 118.32 55.2596ZM29.3545 58.1837C28.2898 58.1837 27.3917 58.6488 26.6608 59.5783C25.9299 60.5079 25.5647 61.5824 25.5647 62.8033C25.5647 64.052 25.925 65.1172 26.6443 65.9982C27.3637 66.8723 28.2234 67.3094 29.2247 67.3094C30.2376 67.3094 31.1239 66.8341 31.8836 65.8837C32.6432 64.9264 33.0232 63.8164 33.0232 62.5539C33.0232 61.3053 32.661 60.2642 31.9358 59.4318C31.2165 58.5993 30.3558 58.1837 29.3545 58.1837ZM45.3762 58.1837C44.3115 58.1837 43.4134 58.6488 42.6825 59.5783C41.9516 60.5079 41.5864 61.5824 41.5864 62.8033C41.5864 64.052 41.9457 65.1172 42.6651 65.9982C43.3844 66.8723 44.2451 67.3094 45.2464 67.3094C46.2593 67.3094 47.1456 66.8341 47.9052 65.8837C48.6649 64.9264 49.0449 63.8164 49.0449 62.5539C49.0449 61.3053 48.6826 60.2642 47.9575 59.4318C47.2382 58.5993 46.3775 58.1837 45.3762 58.1837ZM160.781 58.1837C159.717 58.1837 158.819 58.6488 158.089 59.5783C157.358 60.5079 156.992 61.5824 156.992 62.8033C156.992 64.052 157.352 65.1172 158.071 65.9982C158.791 66.8723 159.651 67.3094 160.653 67.3094C161.665 67.3094 162.551 66.8341 163.31 65.8837C164.07 64.9264 164.45 63.8164 164.45 62.5539C164.45 61.3053 164.088 60.2642 163.363 59.4318C162.643 58.5993 161.783 58.1837 160.781 58.1837ZM37.6844 58.2042C36.7118 58.2042 35.8866 58.6795 35.2076 59.6299C34.5343 60.5802 34.1977 61.6902 34.1977 62.9596C34.1977 64.1112 34.5224 65.1243 35.1727 65.9983C35.823 66.8724 36.6255 67.3095 37.5808 67.3095C38.4555 67.3095 39.1523 67.0112 39.6702 66.4147C40.1939 65.8181 40.4555 65.1797 40.4555 64.4999C40.4555 64.375 40.4042 64.3126 40.3006 64.3126C40.2027 64.3126 40.1396 64.4133 40.1108 64.6144C40.0417 65.2041 39.8029 65.7036 39.3943 66.1129C38.9799 66.5291 38.5506 66.7369 38.1075 66.7369C37.4342 66.7369 36.8588 66.3241 36.3811 65.4986C35.9034 64.6731 35.6646 63.6088 35.6646 62.3046C35.6646 61.1947 35.8343 60.2991 36.1739 59.6192C36.5192 58.9325 37.0196 58.5895 37.6757 58.5895C38.3375 58.5895 38.8013 59.0686 39.0661 60.0259C39.2387 60.6502 39.4864 60.9624 39.8087 60.9624C39.9526 60.9624 40.0789 60.8822 40.1883 60.7227C40.2976 60.5561 40.3519 60.3651 40.3519 60.1501C40.3519 59.5951 40.0647 59.1338 39.4892 58.7662C38.9137 58.3916 38.3116 58.2042 37.6844 58.2042ZM72.0244 58.2154C71.1957 58.2154 70.416 58.6703 69.6851 59.579C68.96 60.4877 68.5968 61.622 68.5968 62.9816C68.5968 64.2511 68.9275 65.3014 69.5893 66.1338C70.2511 66.9593 71.0604 67.3722 72.0157 67.3722C72.666 67.3722 73.2553 67.2054 73.7847 66.8724C74.3142 66.5394 74.6882 66.1303 74.9069 65.6447C74.9011 65.4644 74.8528 65.3739 74.7607 65.3739C74.7147 65.3739 74.6051 65.468 74.4325 65.6553C73.8397 66.3213 73.1982 66.654 72.5076 66.654C71.7997 66.654 71.2036 66.3148 70.7202 65.635C70.2425 64.9552 70.0037 64.1219 70.0037 63.1369C70.0037 62.9288 70.0155 62.6483 70.0385 62.2945L74.355 62.2111C74.7579 62.2111 74.976 62.1765 75.0105 62.1072C75.0508 62.0379 75.0715 61.9307 75.0715 61.785C75.0715 60.8277 74.7577 59.9945 74.1304 59.2869C73.5031 58.5725 72.8013 58.2154 72.0244 58.2154ZM94.8655 58.2154C94.0368 58.2154 93.2571 58.6703 92.5262 59.579C91.8011 60.4877 91.4379 61.622 91.4379 62.9816C91.4379 64.2511 91.7695 65.3014 92.4313 66.1338C93.0932 66.9593 93.9015 67.3722 94.8568 67.3722C95.5071 67.3722 96.0964 67.2054 96.6258 66.8724C97.1553 66.5394 97.5293 66.1303 97.748 65.6447C97.7422 65.4644 97.6939 65.3739 97.6018 65.3739C97.5558 65.3739 97.4462 65.468 97.2736 65.6553C96.6808 66.3213 96.0393 66.654 95.3487 66.654C94.6408 66.654 94.0447 66.3148 93.5613 65.635C93.0836 64.9552 92.8448 64.1219 92.8448 63.1369C92.8448 62.9288 92.8566 62.6483 92.8796 62.2945L97.1961 62.2111C97.599 62.2111 97.8171 62.1765 97.8516 62.1072C97.8919 62.0379 97.9126 61.9307 97.9126 61.785C97.9126 60.8277 97.5988 59.9945 96.9715 59.2869C96.3442 58.5725 95.6424 58.2154 94.8655 58.2154ZM58.4282 58.2369C57.5938 58.2369 56.9374 58.4307 56.4598 58.8192C55.9821 59.2007 55.7433 59.6518 55.7433 60.172C55.7433 60.4703 55.8183 60.6959 55.9679 60.8485C56.1233 61.0012 56.2644 61.0765 56.391 61.0765C56.7421 61.0765 56.9691 60.7578 57.0727 60.1196C57.1705 59.5369 57.3116 59.1455 57.4958 58.9443C57.68 58.7501 57.9533 58.6522 58.3159 58.6522C58.759 58.6522 59.1015 58.8256 59.3432 59.1724C59.5849 59.5123 59.7053 59.9914 59.7053 60.6088C59.7053 60.9972 59.6136 61.3132 59.4294 61.556C59.2452 61.7988 58.6925 62.1035 57.7717 62.4712C57.1272 62.7348 56.6761 62.9538 56.4172 63.1272C56.1639 63.3008 55.936 63.5849 55.7345 63.9803C55.5389 64.3757 55.4412 64.8026 55.4412 65.2604C55.4412 65.8709 55.605 66.3629 55.933 66.7375C56.2668 67.1121 56.7248 67.2994 57.306 67.2994C57.8009 67.2994 58.2441 67.1783 58.6354 66.9355C59.0268 66.6858 59.3633 66.3139 59.6453 65.8214C59.6567 66.4041 59.717 66.7899 59.8264 66.9772C59.9415 67.1575 60.1635 67.247 60.4916 67.247C61.6253 67.247 62.1918 67.112 62.1918 66.8414C62.1918 66.7234 62.1257 66.6646 61.9933 66.6646L61.8461 66.6851C61.7426 66.706 61.6626 66.717 61.605 66.717C61.3173 66.717 61.1189 66.4943 61.0096 66.0503C60.906 65.5994 60.8537 64.8436 60.8537 63.7822L60.906 61.0357C60.906 60.2033 60.8537 59.6413 60.7501 59.3499C60.6522 59.0586 60.4045 58.8013 60.0074 58.5793C59.6161 58.3504 59.09 58.2369 58.4282 58.2369ZM102.194 58.2369C101.36 58.2369 100.703 58.4307 100.226 58.8192C99.7481 59.2007 99.5093 59.6518 99.5093 60.172C99.5093 60.4703 99.5842 60.6959 99.7339 60.8485C99.8892 61.0012 100.03 61.0765 100.157 61.0765C100.508 61.0765 100.735 60.7578 100.839 60.1196C100.937 59.5369 101.078 59.1455 101.262 58.9443C101.446 58.7501 101.719 58.6522 102.082 58.6522C102.525 58.6522 102.868 58.8256 103.109 59.1724C103.351 59.5123 103.471 59.9914 103.471 60.6088C103.471 60.9972 103.38 61.3132 103.195 61.556C103.011 61.7988 102.459 62.1035 101.538 62.4712C100.893 62.7348 100.441 62.9538 100.182 63.1272C99.929 63.3008 99.702 63.5849 99.5006 63.9803C99.3049 64.3757 99.2072 64.8026 99.2072 65.2604C99.2072 65.8709 99.3709 66.3629 99.6991 66.7375C100.033 67.1121 100.491 67.2994 101.072 67.2994C101.567 67.2994 102.01 67.1783 102.401 66.9355C102.793 66.6858 103.129 66.3139 103.411 65.8214C103.423 66.4041 103.483 66.7899 103.592 66.9772C103.707 67.1575 103.929 67.247 104.258 67.247C105.391 67.247 105.958 67.112 105.958 66.8414C105.958 66.7234 105.892 66.6646 105.759 66.6646L105.612 66.6851C105.509 66.706 105.429 66.717 105.371 66.717C105.083 66.717 104.884 66.4943 104.775 66.0503C104.671 65.5994 104.62 64.8436 104.62 63.7822L104.671 61.0357C104.671 60.2033 104.62 59.6413 104.516 59.3499C104.418 59.0586 104.171 58.8013 103.773 58.5793C103.382 58.3504 102.856 58.2369 102.194 58.2369ZM147.497 58.2369C146.662 58.2369 146.006 58.4307 145.528 58.8192C145.051 59.2007 144.812 59.6518 144.812 60.172C144.812 60.4703 144.887 60.6959 145.037 60.8485C145.192 61.0012 145.333 61.0765 145.46 61.0765C145.811 61.0765 146.038 60.7578 146.141 60.1196C146.239 59.5369 146.38 59.1455 146.564 58.9443C146.749 58.7501 147.022 58.6522 147.385 58.6522C147.828 58.6522 148.17 58.8256 148.412 59.1724C148.654 59.5123 148.774 59.9914 148.774 60.6088C148.774 60.9972 148.682 61.3132 148.498 61.556C148.314 61.7988 147.761 62.1035 146.84 62.4712C146.196 62.7348 145.744 62.9538 145.485 63.1272C145.232 63.3008 145.005 63.5849 144.803 63.9803C144.608 64.3757 144.51 64.8026 144.51 65.2604C144.51 65.8709 144.674 66.3629 145.002 66.7375C145.335 67.1121 145.793 67.2994 146.375 67.2994C146.87 67.2994 147.313 67.1783 147.704 66.9355C148.095 66.6858 148.432 66.3139 148.714 65.8214C148.725 66.4041 148.786 66.7899 148.895 66.9772C149.01 67.1575 149.231 67.247 149.559 67.247C150.693 67.247 151.26 67.112 151.26 66.8414C151.26 66.7234 151.194 66.6646 151.062 66.6646L150.915 66.6851C150.811 66.706 150.73 66.717 150.673 66.717C150.385 66.717 150.187 66.4943 150.077 66.0503C149.974 65.5994 149.922 64.8436 149.922 63.7822L149.974 61.0357C149.974 60.2033 149.922 59.6413 149.819 59.3499C149.721 59.0586 149.473 58.8013 149.076 58.5793C148.685 58.3504 148.159 58.2369 147.497 58.2369ZM167.808 58.2462C167.106 58.2671 166.718 58.2772 166.643 58.2772L165.944 58.2678C165.771 58.2678 165.685 58.3266 165.685 58.4444C165.685 58.5554 165.797 58.642 166.021 58.7045C166.269 58.7738 166.461 58.9574 166.6 59.2557C166.738 59.554 166.807 60.3173 166.807 61.5451C166.807 62.8632 166.79 63.9629 166.755 64.8439C166.727 65.7249 166.665 66.2449 166.573 66.4045C166.481 66.5572 166.304 66.6642 166.039 66.7267C165.763 66.789 165.625 66.8796 165.625 66.9975C165.625 67.1084 165.751 67.1644 166.004 67.1644L166.694 67.143C167.598 67.143 168.131 67.1505 168.292 67.1644L168.74 67.2052C168.867 67.2052 168.93 67.1567 168.93 67.0596C168.93 66.9417 168.867 66.8765 168.74 66.8626C168.338 66.807 168.085 66.6543 167.981 66.4045C167.883 66.1479 167.834 65.5551 167.834 64.6256C167.834 62.5792 168.056 61.1188 168.499 60.2447C168.948 59.3637 169.509 58.9229 170.182 58.9229C170.637 58.9229 171.017 59.1661 171.322 59.6517C171.627 60.1373 171.779 61.1112 171.779 62.5749C171.779 63.109 171.766 63.8034 171.736 64.6566C171.713 65.5099 171.682 66.0122 171.641 66.1648C171.601 66.3106 171.532 66.4289 171.434 66.5191C171.336 66.6092 171.129 66.696 170.813 66.7791C170.697 66.8069 170.64 66.8618 170.64 66.9452C170.64 67.0631 170.746 67.1228 170.959 67.1228C171.494 67.0744 171.995 67.05 172.461 67.05C172.979 67.05 173.37 67.0845 173.635 67.1538C173.675 67.1613 173.716 67.1651 173.756 67.1651C173.854 67.1651 173.903 67.1129 173.903 67.0088C173.903 66.9256 173.802 66.8492 173.601 66.7798C173.307 66.6827 173.114 66.5541 173.022 66.3945C172.936 66.2279 172.893 65.8226 172.893 65.1775L172.945 61.671C172.945 60.6305 172.844 59.8952 172.643 59.4651C172.447 59.0281 172.165 58.7223 171.796 58.5489C171.434 58.3686 171.057 58.2781 170.665 58.2781C170.153 58.2781 169.678 58.4487 169.241 58.7886C168.809 59.1285 168.416 59.6383 168.059 60.3182C168.03 59.347 167.946 58.6555 167.808 58.2462ZM125.251 58.2772C125.205 58.2772 125.121 58.2923 125 58.3189C124.799 58.3676 124.238 58.3918 123.318 58.3918C122.886 58.3918 122.503 58.3676 122.169 58.3189C122.095 58.3058 122.028 58.2986 121.971 58.2986C121.833 58.2986 121.764 58.3647 121.764 58.4966C121.764 58.6076 121.858 58.6765 122.048 58.7043C122.255 58.7391 122.446 58.8778 122.619 59.1207C122.797 59.3565 123.128 60.1571 123.611 61.5236C124.094 62.8833 124.532 64.1499 124.923 65.3222C125.32 66.4945 125.518 67.3128 125.518 67.7776C125.518 68.3672 125.263 69.1855 124.751 70.233C124.244 71.2804 123.783 71.8042 123.369 71.8042C123.11 71.8042 122.969 71.6141 122.946 71.2326C122.906 70.6638 122.65 70.3795 122.178 70.3795C121.994 70.3795 121.812 70.4792 121.634 70.6804C121.461 70.8815 121.375 71.1146 121.375 71.3782C121.375 71.7042 121.505 72.0229 121.764 72.3351C122.028 72.6473 122.385 72.8039 122.834 72.8039C123.271 72.8039 123.714 72.595 124.163 72.1788C124.618 71.7696 125.053 71.024 125.467 69.9418C125.887 68.8666 126.439 67.1117 127.124 64.6768C127.826 62.1865 128.31 60.6011 128.574 59.9213C128.845 59.2346 129.21 58.8292 129.67 58.7043C129.826 58.6626 129.904 58.5899 129.904 58.4859C129.904 58.368 129.832 58.3094 129.688 58.3094C129.642 58.3094 129.562 58.315 129.447 58.3297C129.188 58.3575 128.675 58.3714 127.91 58.3714C127.651 58.3714 127.47 58.3676 127.366 58.3601C127.101 58.3393 126.946 58.3291 126.9 58.3291C126.768 58.3291 126.701 58.3851 126.701 58.4961C126.701 58.614 126.785 58.6829 126.951 58.7038C127.55 58.7661 127.849 59.0849 127.849 59.6607C127.849 60.1047 127.76 60.6984 127.582 61.4406C127.403 62.1759 127.001 63.5702 126.373 65.6235C125.061 61.8984 124.405 59.8722 124.405 59.5462C124.405 59.1646 124.632 58.9018 125.087 58.7562C125.34 58.6799 125.467 58.5857 125.467 58.4747C125.467 58.3429 125.395 58.2772 125.251 58.2772ZM107.21 58.4132C106.934 58.4132 106.795 58.472 106.795 58.5899C106.795 58.7079 106.91 58.7768 107.14 58.7976C107.353 58.8108 107.48 58.8739 107.521 58.9849C107.561 59.0958 107.581 59.3773 107.581 59.8282C107.581 60.6537 107.597 61.7917 107.632 63.2415C107.666 64.6913 107.73 65.6 107.823 65.9677C107.92 66.3284 108.116 66.6369 108.409 66.8935C108.709 67.1502 109.077 67.2788 109.514 67.2788C110.026 67.2788 110.518 67.1083 110.99 66.7683C111.462 66.4284 111.917 65.9186 112.354 65.2388C112.371 65.5856 112.38 65.8494 112.38 66.0298C112.38 66.2448 112.371 66.4564 112.354 66.6645C112.348 66.7338 112.345 66.7963 112.345 66.8517C112.345 67.039 112.463 67.1322 112.699 67.1322H114.062C114.356 67.1322 114.503 67.0697 114.503 66.945C114.503 66.834 114.428 66.765 114.278 66.7373C114.037 66.7095 113.859 66.5912 113.744 66.383C113.634 66.1749 113.579 65.6689 113.579 64.8642L113.648 60.9521C113.648 60.0156 113.622 59.1693 113.571 58.4132H111.844C111.625 58.4132 111.496 58.4282 111.456 58.4549C111.416 58.4758 111.396 58.5242 111.396 58.6005C111.396 58.7114 111.462 58.7702 111.594 58.777C111.951 58.8048 112.175 58.9118 112.267 59.0992C112.359 59.2864 112.406 59.8243 112.406 60.7122C112.406 62.6198 112.356 63.8408 112.258 64.3749C112.161 64.9021 111.902 65.3979 111.482 65.8627C111.068 66.3274 110.653 66.5605 110.239 66.5605C109.922 66.5605 109.64 66.4142 109.392 66.1228C109.151 65.8314 109.007 65.4642 108.961 65.0203C108.915 64.5694 108.886 63.6709 108.874 62.3252C108.851 60.1678 108.826 58.864 108.797 58.4131L107.21 58.4132ZM72.0758 58.5792C72.5246 58.5792 72.9135 58.7983 73.2415 59.2353C73.5753 59.6654 73.7421 60.1714 73.7421 60.7541C73.7421 61.1287 73.6493 61.3925 73.4652 61.5451C73.281 61.6908 73.0165 61.7709 72.6712 61.7848L72.2142 61.8158C71.5121 61.8158 70.7867 61.7944 70.0386 61.7527C70.1594 60.6289 70.4239 59.8209 70.8325 59.3284C71.2469 58.8289 71.6614 58.5792 72.0758 58.5792ZM94.9168 58.5792C95.3657 58.5792 95.7546 58.7983 96.0826 59.2353C96.4164 59.6654 96.5832 60.1714 96.5832 60.7541C96.5832 61.1287 96.4904 61.3925 96.3063 61.5451C96.1221 61.6908 95.8576 61.7709 95.5123 61.7848L95.0553 61.8158C94.3532 61.8158 93.6278 61.7944 92.8796 61.7527C93.0005 60.6289 93.265 59.8209 93.6736 59.3284C94.088 58.8289 94.5025 58.5792 94.9168 58.5792ZM29.2422 58.6209C29.9615 58.6209 30.5458 59.0515 30.9947 59.9117C31.4493 60.7649 31.6764 61.7388 31.6764 62.8349C31.6764 64.0627 31.4405 65.0478 30.9686 65.7901C30.5024 66.5323 29.9615 66.9042 29.3458 66.9042C28.6724 66.9042 28.1059 66.5081 27.6455 65.7173C27.1909 64.9265 26.9629 63.9348 26.9629 62.7417C26.9629 61.5555 27.1761 60.5741 27.6019 59.7972C28.0278 59.0133 28.5746 58.6209 29.2422 58.6209ZM45.2638 58.6209C45.9832 58.6209 46.5675 59.0515 47.0164 59.9117C47.471 60.7649 47.698 61.7388 47.698 62.8349C47.698 64.0627 47.4621 65.0478 46.9902 65.7901C46.5241 66.5323 45.9832 66.9042 45.3675 66.9042C44.6941 66.9042 44.1276 66.5081 43.6672 65.7173C43.2126 64.9265 42.9846 63.9348 42.9846 62.7417C42.9846 61.5555 43.1978 60.5741 43.6236 59.7972C44.0495 59.0133 44.5963 58.6209 45.2638 58.6209ZM160.669 58.6209C161.388 58.6209 161.973 59.0515 162.422 59.9117C162.876 60.7649 163.104 61.7388 163.104 62.8349C163.104 64.0627 162.867 65.0478 162.395 65.7901C161.929 66.5323 161.388 66.9042 160.773 66.9042C160.099 66.9042 159.533 66.5081 159.072 65.7173C158.618 64.9265 158.391 63.9348 158.391 62.7417C158.391 61.5555 158.603 60.5741 159.029 59.7972C159.455 59.0133 160.001 58.6209 160.669 58.6209ZM85.1191 60.2028C86.1952 60.2028 87.0066 60.4666 87.5533 60.9938C88.1057 61.521 88.3821 62.3458 88.3821 63.4696C88.3821 64.2257 88.238 64.8744 87.9503 65.4154C87.6625 65.9565 87.3467 66.3209 87.0014 66.5082C86.6618 66.6885 86.2187 66.779 85.672 66.779C85.0562 66.779 84.6041 66.7334 84.3164 66.643C84.0344 66.5529 83.8676 66.4419 83.8158 66.3101C83.7698 66.1783 83.7471 65.5437 83.7471 64.406L83.8071 61.181C83.8071 60.7509 83.8476 60.4489 83.9282 60.2755C84.3598 60.2269 84.7565 60.2028 85.1191 60.2028ZM59.6453 61.7634C59.6856 62.4502 59.7053 63.0746 59.7053 63.6365C59.7053 64.3857 59.6343 64.9514 59.4904 65.3329C59.3523 65.7145 59.1361 66.0294 58.8426 66.2792C58.5491 66.522 58.2353 66.6431 57.9015 66.6431C57.5792 66.6431 57.3088 66.4912 57.0901 66.186C56.8772 65.8808 56.7706 65.5099 56.7706 65.0728C56.7706 64.5873 56.9028 64.1707 57.1676 63.8238C57.4323 63.4839 57.8666 63.1269 58.4708 62.7524C59.0808 62.3639 59.4727 62.0339 59.6453 61.7634ZM103.411 61.7634C103.452 62.4502 103.471 63.0746 103.471 63.6365C103.471 64.3857 103.399 64.9514 103.255 65.3329C103.117 65.7145 102.902 66.0294 102.609 66.2792C102.315 66.522 102.001 66.6431 101.667 66.6431C101.345 66.6431 101.075 66.4912 100.856 66.186C100.643 65.8808 100.537 65.5099 100.537 65.0728C100.537 64.5873 100.669 64.1707 100.934 63.8238C101.198 63.4839 101.633 63.1269 102.237 62.7524C102.847 62.3639 103.239 62.0339 103.411 61.7634ZM148.714 61.7634C148.754 62.4502 148.774 63.0746 148.774 63.6365C148.774 64.3857 148.702 64.9514 148.558 65.3329C148.42 65.7145 148.204 66.0294 147.91 66.2792C147.617 66.522 147.304 66.6431 146.97 66.6431C146.648 66.6431 146.377 66.4912 146.159 66.186C145.946 65.8808 145.839 65.5099 145.839 65.0728C145.839 64.5873 145.971 64.1707 146.236 63.8238C146.501 63.4839 146.935 63.1269 147.539 62.7524C148.149 62.3639 148.541 62.0339 148.714 61.7634Z" fill="#FFFFCC" fill-opacity="0.992157" stroke="#FFFFCC" stroke-width="2.45669"/>
</svg>
